<?xml version="1.0" encoding="utf-8"?>
<!-- Generator: Adobe Illustrator 19.2.1, SVG Export Plug-In . SVG Version: 6.00 Build 0)  -->
<svg version="1.1" id="Layer_1" xmlns="http://www.w3.org/2000/svg" xmlns:xlink="http://www.w3.org/1999/xlink" x="0px" y="0px"
	 viewBox="0 0 268.7 70" style="enable-background:new 0 0 268.7 70;" xml:space="preserve">
<style type="text/css">
	.st0{fill:#0074C5;}
</style>
<path class="st0" d="M74.4,18.3C64.8,8.4,64.1,6,64.1,6s-0.6,2.5-10.2,12.3c-1.6,1.6-3.1,4.3-3.9,7.1c1.5,1.7,3.5,3.9,6.2,6.7
	c3,3.1,5.4,7.9,6.3,12.5c0.4,0,0.8,0.1,1.2,0.1c0.1,0,0.2,0,0.3,0c0,0,0.1,0,0.1,0c0,0,0,0,0,0c0,0,0,0,0,0c0,0,0.1,0,0.1,0
	c0.1,0,0.2,0,0.3,0c8-0.2,14.5-6.8,14.5-14.9C79.1,25.9,76.9,20.8,74.4,18.3"/>
<path class="st0" d="M32.3,24.5c-0.9-2.4-2.2-4.7-3.6-6.2C19,8.4,18.3,6,18.3,6S17.8,8.4,8.1,18.3c-2.5,2.5-4.6,7.6-4.6,11.4
	c0,8.1,6.4,14.7,14.5,14.9c0.1,0,0.2,0,0.3,0c0,0,0.1,0,0.1,0c0,0,0,0,0,0c0,0,0,0,0,0c0,0,0.1,0,0.1,0c0.1,0,0.2,0,0.3,0
	c0,0,0.1,0,0.1,0c0.9-4.6,3.3-9.5,6.3-12.5C28.5,28.7,30.8,26.3,32.3,24.5"/>
<path class="st0" d="M40.7,22.3c0,0,0.7,2.7,11.5,13.7c2.8,2.8,5.2,8.4,5.2,12.7c0,9-7.2,16.3-16.1,16.5c-0.1,0-0.2,0-0.3,0
	c0,0-0.1,0-0.1,0c0,0,0,0-0.1,0s0,0-0.1,0c0,0-0.1,0-0.1,0c-0.1,0-0.2,0-0.3,0c-8.9-0.2-16.1-7.5-16.1-16.5c0-4.3,2.4-9.9,5.2-12.7
	C40.1,25,40.7,22.3,40.7,22.3"/>
<path class="st0" d="M97.5,17.2H111c10.9,0,18.4,7.5,18.4,17.2v0.1c0,9.8-7.5,17.3-18.4,17.3H97.5V17.2z M105.1,24.1V45h5.9
	c6.2,0,10.5-4.2,10.5-10.4v-0.1c0-6.1-4.2-10.5-10.5-10.5H105.1z"/>
<path class="st0" d="M135.4,25.3h7.5v5.3c1.5-3.7,4-6,8.5-5.8v7.9H151c-5,0-8.1,3-8.1,9.4v9.8h-7.5V25.3z"/>
<path class="st0" d="M155.9,42.5V25.3h7.5v14.8c0,3.6,1.7,5.4,4.6,5.4c2.9,0,4.7-1.8,4.7-5.4V25.3h7.5v26.6h-7.5v-3.8
	c-1.7,2.2-4,4.3-7.8,4.3C159.2,52.3,155.9,48.6,155.9,42.5"/>
<path class="st0" d="M187,25.3h7.5v3.8c1.8-2.5,4.4-4.3,8.3-4.3c6.2,0,12.1,4.9,12.1,13.7v0.1c0,8.9-5.8,13.7-12.1,13.7
	c-4,0-6.5-1.8-8.3-4v11.4H187V25.3z M207.3,38.6L207.3,38.6c0-4.5-3-7.4-6.5-7.4s-6.4,2.9-6.4,7.3v0.1c0,4.4,2.9,7.3,6.4,7.3
	S207.3,43.1,207.3,38.6"/>
<path class="st0" d="M218.8,44.2L218.8,44.2c0-5.9,4.4-8.6,10.7-8.6c2.7,0,4.6,0.4,6.5,1.1v-0.4c0-3.1-1.9-4.9-5.7-4.9
	c-2.9,0-4.9,0.5-7.3,1.4l-1.9-5.7c2.9-1.3,5.8-2.1,10.3-2.1c4.1,0,7.1,1.1,9,3c2,2,2.9,4.9,2.9,8.5v15.4H236V49
	c-1.8,2-4.4,3.4-8,3.4C222.9,52.3,218.8,49.5,218.8,44.2 M236.1,42.5v-1.3c-1.3-0.6-3-1-4.8-1c-3.2,0-5.2,1.3-5.2,3.7v0.1
	c0,2,1.7,3.2,4.1,3.2C233.7,47.1,236.1,45.2,236.1,42.5"/>
<path class="st0" d="M249.7,25.3h7.5v5.3c1.5-3.7,4-6,8.5-5.8v7.9h-0.4c-5,0-8.1,3-8.1,9.4v9.8h-7.5V25.3z"/>
</svg>
